<svg
      width="151"
      height="85"
      viewBox="0 0 151 85"
      fill="none"
      xmlns="http://www.w3.org/2000/svg"
    >
      <path
        d="M10.9773 56.8424V71.7742H2.64205V36.8651H10.7045V50.3992H10.9943C11.5852 48.7856 12.5511 47.5242 13.892 46.6151C15.2443 45.706 16.8977 45.2515 18.8523 45.2515C20.6932 45.2515 22.2955 45.6606 23.6591 46.4787C25.0227 47.2856 26.0795 48.4276 26.8295 49.9049C27.5909 51.3822 27.9659 53.1094 27.9545 55.0867V71.7742H19.6193V56.7231C19.6307 55.2685 19.267 54.1322 18.5284 53.314C17.7898 52.4958 16.75 52.0867 15.4091 52.0867C14.5341 52.0867 13.7614 52.2799 13.0909 52.6662C12.4318 53.0412 11.9148 53.581 11.5398 54.2856C11.1761 54.9901 10.9886 55.8424 10.9773 56.8424ZM40.5384 72.2174C38.8679 72.2174 37.3849 71.939 36.0895 71.3822C34.8054 70.814 33.7884 69.9617 33.0384 68.8253C32.2997 67.6776 31.9304 66.2401 31.9304 64.5128C31.9304 63.0583 32.1861 61.831 32.6974 60.831C33.2088 59.831 33.9134 59.0185 34.8111 58.3935C35.7088 57.7685 36.7429 57.2969 37.9134 56.9787C39.0838 56.6492 40.3338 56.4276 41.6634 56.314C43.152 56.1776 44.3509 56.0356 45.2599 55.8878C46.169 55.7287 46.8281 55.5072 47.2372 55.2231C47.6577 54.9276 47.8679 54.5128 47.8679 53.9787V53.8935C47.8679 53.0185 47.5668 52.3424 46.9645 51.8651C46.3622 51.3878 45.5497 51.1492 44.527 51.1492C43.4247 51.1492 42.5384 51.3878 41.8679 51.8651C41.1974 52.3424 40.7713 53.0015 40.5895 53.8424L32.902 53.5697C33.1293 51.9787 33.7145 50.5583 34.6577 49.3083C35.6122 48.0469 36.919 47.0583 38.5781 46.3424C40.2486 45.6151 42.2543 45.2515 44.5952 45.2515C46.2656 45.2515 47.8054 45.4503 49.2145 45.8481C50.6236 46.2344 51.8509 46.8026 52.8963 47.5526C53.9418 48.2912 54.7486 49.2003 55.3168 50.2799C55.8963 51.3594 56.1861 52.5924 56.1861 53.9787V71.7742H48.3452V68.1265H48.1406C47.6747 69.0128 47.0781 69.7628 46.3509 70.3765C45.6349 70.9901 44.7884 71.4503 43.8111 71.7572C42.8452 72.064 41.7543 72.2174 40.5384 72.2174ZM43.1122 66.7628C44.0099 66.7628 44.8168 66.581 45.5327 66.2174C46.2599 65.8537 46.8395 65.3537 47.2713 64.7174C47.7031 64.0697 47.919 63.3197 47.919 62.4674V59.9787C47.6804 60.1037 47.3906 60.2174 47.0497 60.3197C46.7202 60.4219 46.3565 60.5185 45.9588 60.6094C45.5611 60.7003 45.152 60.7799 44.7315 60.8481C44.3111 60.9162 43.9077 60.9787 43.5213 61.0356C42.7372 61.1606 42.0668 61.3537 41.5099 61.6151C40.9645 61.8765 40.544 62.2174 40.2486 62.6378C39.9645 63.0469 39.8224 63.5356 39.8224 64.1037C39.8224 64.9674 40.1293 65.6265 40.7429 66.081C41.3679 66.5356 42.1577 66.7628 43.1122 66.7628ZM61.2827 71.7742V36.8651H69.6179V50.0753H69.7884C70.1293 49.2799 70.6122 48.5128 71.2372 47.7742C71.8736 47.0356 72.6804 46.4333 73.6577 45.9674C74.6463 45.4901 75.8281 45.2515 77.2031 45.2515C79.0213 45.2515 80.7202 45.7287 82.2997 46.6833C83.8906 47.6378 85.1747 49.1094 86.152 51.0981C87.1293 53.0867 87.6179 55.6208 87.6179 58.7003C87.6179 61.6662 87.1463 64.1492 86.2031 66.1492C85.2713 68.1492 84.0099 69.6492 82.419 70.6492C80.8395 71.6492 79.0838 72.1492 77.152 72.1492C75.8338 72.1492 74.6918 71.9333 73.7259 71.5015C72.7599 71.0697 71.9474 70.5015 71.2884 69.7969C70.6406 69.0924 70.1406 68.3367 69.7884 67.5299H69.5327V71.7742H61.2827ZM69.4474 58.6833C69.4474 60.0924 69.6349 61.3197 70.0099 62.3651C70.3963 63.4106 70.9474 64.2231 71.6634 64.8026C72.3906 65.3708 73.2599 65.6549 74.2713 65.6549C75.294 65.6549 76.1634 65.3708 76.8793 64.8026C77.5952 64.2231 78.1349 63.4106 78.4986 62.3651C78.8736 61.3197 79.0611 60.0924 79.0611 58.6833C79.0611 57.2742 78.8736 56.0526 78.4986 55.0185C78.1349 53.9844 77.5952 53.1833 76.8793 52.6151C76.1747 52.0469 75.3054 51.7628 74.2713 51.7628C73.2486 51.7628 72.3793 52.0412 71.6634 52.5981C70.9474 53.1549 70.3963 53.9503 70.0099 54.9844C69.6349 56.0185 69.4474 57.2515 69.4474 58.6833ZM91.9858 71.7742V45.5924H100.321V71.7742H91.9858ZM96.1619 42.5412C94.9915 42.5412 93.9858 42.1549 93.1449 41.3822C92.304 40.5981 91.8835 39.6549 91.8835 38.5526C91.8835 37.4617 92.304 36.5299 93.1449 35.7572C93.9858 34.9731 94.9915 34.581 96.1619 34.581C97.3438 34.581 98.3494 34.9731 99.179 35.7572C100.02 36.5299 100.44 37.4617 100.44 38.5526C100.44 39.6549 100.02 40.5981 99.179 41.3822C98.3494 42.1549 97.3438 42.5412 96.1619 42.5412ZM120.405 45.5924V51.7287H103.888V45.5924H120.405ZM107.348 39.3197H115.683V63.5412C115.683 64.0526 115.763 64.4674 115.922 64.7856C116.092 65.0924 116.337 65.314 116.655 65.4503C116.973 65.5753 117.354 65.6378 117.797 65.6378C118.115 65.6378 118.45 65.6094 118.803 65.5526C119.166 65.4844 119.439 65.4276 119.621 65.3822L120.882 71.3992C120.484 71.5128 119.922 71.6549 119.195 71.8253C118.479 71.9958 117.621 72.1037 116.621 72.1492C114.666 72.2401 112.99 72.0128 111.592 71.4674C110.206 70.9106 109.143 70.0469 108.405 68.8765C107.678 67.706 107.325 66.2344 107.348 64.4617V39.3197ZM147.188 53.5867L139.534 53.7912C139.455 53.2458 139.239 52.7628 138.886 52.3424C138.534 51.9106 138.074 51.5753 137.506 51.3367C136.949 51.0867 136.301 50.9617 135.562 50.9617C134.597 50.9617 133.773 51.1549 133.091 51.5412C132.42 51.9276 132.091 52.4503 132.102 53.1094C132.091 53.6208 132.295 54.064 132.716 54.439C133.148 54.814 133.915 55.1151 135.017 55.3424L140.062 56.2969C142.676 56.7969 144.619 57.6265 145.892 58.7856C147.176 59.9447 147.824 61.4787 147.835 63.3878C147.824 65.1833 147.29 66.7458 146.233 68.0753C145.188 69.4049 143.756 70.439 141.938 71.1776C140.119 71.9049 138.04 72.2685 135.699 72.2685C131.96 72.2685 129.011 71.5015 126.852 69.9674C124.705 68.4219 123.477 66.3537 123.17 63.7628L131.403 63.5583C131.585 64.5128 132.057 65.2401 132.818 65.7401C133.58 66.2401 134.551 66.4901 135.733 66.4901C136.801 66.4901 137.67 66.2912 138.341 65.8935C139.011 65.4958 139.352 64.9674 139.364 64.3083C139.352 63.7174 139.091 63.2458 138.58 62.8935C138.068 62.5299 137.267 62.2458 136.176 62.0412L131.608 61.1719C128.983 60.6947 127.028 59.814 125.744 58.5299C124.46 57.2344 123.824 55.5867 123.835 53.5867C123.824 51.8367 124.29 50.3424 125.233 49.1037C126.176 47.8537 127.517 46.8992 129.256 46.2401C130.994 45.581 133.045 45.2515 135.409 45.2515C138.955 45.2515 141.75 45.9958 143.795 47.4844C145.841 48.9617 146.972 50.9958 147.188 53.5867Z"
        fill="white"
      />
      <rect
        x="0.5"
        y="1.2742"
        width="15"
        height="15"
        rx="3.5"
        fill="#18181B"
        stroke="#27272A"
      />
      <rect
        x="20.5"
        y="1.2742"
        width="15"
        height="15"
        rx="3.5"
        fill="#4C1D95"
        stroke="#6D28D9"
      />
      <rect
        x="40.5"
        y="1.2742"
        width="15"
        height="15"
        rx="3.5"
        fill="#5B21B6"
        stroke="#7C3AED"
      />
      <rect
        x="60.5"
        y="1.2742"
        width="15"
        height="15"
        rx="3.5"
        fill="#6D28D9"
        stroke="#8B5CF6"
      />
      <rect
        x="80.5"
        y="1.2742"
        width="15"
        height="15"
        rx="3.5"
        fill="#7C3AED"
        stroke="#A78BFA"
      />
      <rect
        x="100.5"
        y="1.2742"
        width="15"
        height="15"
        rx="3.5"
        fill="#8B5CF6"
        stroke="#C4B5FD"
      />
    </svg>